<?xml version="1.0" encoding="utf-8"?>
<!-- Generator: Adobe Illustrator 21.0.0, SVG Export Plug-In . SVG Version: 6.00 Build 0)  -->
<svg version="1.1" id="Ebene_1" xmlns="http://www.w3.org/2000/svg" xmlns:xlink="http://www.w3.org/1999/xlink" x="0px" y="0px"
	 viewBox="0 0 1920 1080" style="enable-background:new 0 0 1920 1080;" xml:space="preserve">
<style type="text/css">
	.st0{fill:#FFFFFF;}
	.st1{fill:#F7931E;stroke:#000000;stroke-miterlimit:10;}
	.st2{fill:#95A5A6;stroke:#3A3A3A;stroke-miterlimit:10;}
	.st3{fill:#424242;stroke:#3A3A3A;stroke-miterlimit:10;}
	.st4{fill:#34383D;stroke:#3A3A3A;stroke-miterlimit:10;}
	.st5{fill:#BDC3C7;stroke:#3A3A3A;stroke-miterlimit:10;}
	.st6{fill:#9B1E1E;stroke:#1E1D1D;stroke-miterlimit:10;}
	.st7{font-family:'MyriadPro-BoldCond';}
	.st8{font-size:138.0959px;}
	.st9{fill:#F29500;}
	.st10{font-family:'MyriadPro-Semibold';}
	.st11{font-size:58.6757px;}
	.st12{fill:#FF4F32;stroke:#070707;stroke-miterlimit:10;}
	.st13{fill:#FFDC64;}
	.st14{fill:#F9A428;}
	.st15{font-size:376.9388px;}
	.st16{font-size:216.9052px;}
</style>
<g>
	<rect x="131" y="312" class="st0" width="1658" height="634"/>
</g>
<path class="st1" d="M1555.7,879H364.3C250.4,879,158,786.6,158,672.7V393.3C158,279.4,250.4,187,364.3,187h1191.4
	c113.9,0,206.3,92.4,206.3,206.3v279.4C1762,786.6,1669.6,879,1555.7,879z"/>
<path class="st2" d="M434.1,718.4h177.4c24,0,43.5,21.6,43.5,48.2v0H390.6v0C390.6,739.9,410.1,718.4,434.1,718.4z"/>
<polygon class="st3" points="457.1,718.4 481.3,637.8 564.3,637.8 588.4,718.4 "/>
<path class="st4" d="M762.5,637.8H282.9c-13.4,0-24.3-10.9-24.3-24.3V354.9c0-13.4,10.9-24.3,24.3-24.3h479.6
	c13.4,0,24.3,10.9,24.3,24.3v258.7C786.7,627,775.9,637.8,762.5,637.8z"/>
<path class="st5" d="M258.6,590.3h528.1v0.7c5.8,56.4-10.2,46.7-42.5,46.9H300.8c-41.6,2.5-46.1-0.1-42.2-46.6V590.3z"/>
<text transform="matrix(1 0 0 1 440.1636 517.2109)" class="st6 st7 st8">KAT</text>
<text transform="matrix(1 0 0 1 602.2368 495.1387)" class="st9 st10 st11">Ware</text>
<path class="st12" d="M291,508.4c0,37.3,30.2,67.5,67.5,67.5l0,0c37.3,0,65.4-30.3,67.5-67.5c3.8-66.5-7.7-66.9-6.2-93.8
	c0,0-15.9,31.2-31.3,33.8c0,0-11.4-67.8-54.4-95.9c0,0,6,4.9,15,53.6c3.4,41.8-20.6,64.8-20.6,64.8c0-33.8-26.4-48.8-26.4-48.8
	C309.7,463.3,291,474.6,291,508.4z"/>
<path class="st13" d="M407,525.9c-2.1,26-24.9,46.5-52,43.9c-25.5-2.5-43.1-22.7-39.1-46.8c1.8-10.8,11.8-27.7,27.3-44.4
	c0,0,10.4,23.4,16.4,18.9c16.3-12.2,7.3-63.2,7.3-63.2C371.6,465.7,411,476.9,407,525.9z"/>
<path class="st14" d="M389.1,488.4c4.5,22.3,6.9,40.8,3.6,54.5c-3.5,14.6-12.3,21.4-32.4,21.4l0,0c-20.2,0-37-11.2-36.9-27.7
	c0.2-44.4,32.3-79.6,32.3-79.6c-4.5,22.3,7.5,59.3,7.5,59.3C366.8,512.3,379.6,508.2,389.1,488.4z"/>
<text transform="matrix(1 0 0 1 807.1631 633.499)" class="st6 st7 st15">KAT</text>
<text transform="matrix(1 0 0 1 1254.5498 607.5498)" class="st4 st7 st16">Ware</text>
</svg>
