<svg id="Ebene_1" data-name="Ebene 1" xmlns="http://www.w3.org/2000/svg" viewBox="0 0 1658 634"><defs><style>.cls-1{fill:#fff;}.cls-2{fill:#95a5a6;}.cls-19,.cls-2,.cls-3,.cls-4,.cls-5{stroke:#3a3a3a;}.cls-13,.cls-16,.cls-19,.cls-2,.cls-3,.cls-4,.cls-5,.cls-6{stroke-miterlimit:10;}.cls-3{fill:#424242;}.cls-19,.cls-4{fill:#34383d;}.cls-5{fill:#bdc3c7;}.cls-6{font-size:138.1px;}.cls-16,.cls-6{fill:#9b1e1e;stroke:#1e1d1d;}.cls-16,.cls-19,.cls-6{font-family:MyriadPro-BoldCond, Myriad Pro;}.cls-16,.cls-19,.cls-6,.cls-9{font-weight:700;}.cls-7{letter-spacing:0.01em;}.cls-8{letter-spacing:-0.05em;}.cls-9{font-size:58.68px;fill:#f29500;font-family:MyriadPro-Semibold, Myriad Pro;}.cls-10{letter-spacing:-0.04em;}.cls-11{letter-spacing:-0.01em;}.cls-12{letter-spacing:0em;}.cls-13{fill:#ff4f32;stroke:#070707;}.cls-14{fill:#ffdc64;}.cls-15{fill:#f9a428;}.cls-16{font-size:376.94px;}.cls-17{letter-spacing:0.01em;}.cls-18{letter-spacing:-0.05em;}.cls-19{font-size:216.91px;}.cls-20{letter-spacing:-0.02em;}.cls-21{letter-spacing:0em;}.cls-22{letter-spacing:0em;}</style></defs><title>Header_clear</title><rect class="cls-1" width="1658" height="634"/><path class="cls-2" d="M434.1,718.37H611.48c24,0,43.52,21.57,43.52,48.19H390.57C390.57,739.95,410.06,718.37,434.1,718.37Z" transform="translate(-131 -312)"/><polygon class="cls-3" points="326.14 406.37 350.25 325.84 433.32 325.84 457.44 406.37 326.14 406.37"/><rect class="cls-4" x="127.62" y="18.6" width="528.13" height="307.24" rx="24.25" ry="24.25"/><path class="cls-5" d="M258.62,590.3H786.74V591c5.76,56.4-10.25,46.67-42.48,46.85H300.84c-41.58,2.5-46.06-.06-42.23-46.57Z" transform="translate(-131 -312)"/><text class="cls-6" transform="translate(309.16 205.21)"><tspan class="cls-7">K</tspan><tspan class="cls-8" x="64.63" y="0">A</tspan><tspan x="120.97" y="0">T</tspan></text><text class="cls-9" transform="translate(471.24 183.14)"><tspan class="cls-10">W</tspan><tspan x="48.76" y="0">a</tspan><tspan class="cls-11" x="78.57" y="0">r</tspan><tspan class="cls-12" x="98.93" y="0">e</tspan></text><path class="cls-13" d="M291,508.35a67.51,67.51,0,0,0,67.51,67.51h0c37.29,0,65.38-30.29,67.51-67.51,3.81-66.54-7.66-66.93-6.17-93.76,0,0-15.94,31.19-31.34,33.76,0,0-11.37-67.82-54.42-95.86,0,0,6,4.89,15,53.6,3.42,41.81-20.59,64.76-20.59,64.76a57.58,57.58,0,0,0-26.39-48.76C309.72,463.35,291,474.6,291,508.35Z" transform="translate(-131 -312)"/><path class="cls-14" d="M407,525.86c-2.09,26-24.86,46.54-52,43.86-25.54-2.52-43.08-22.68-39.1-46.84,1.78-10.79,11.82-27.69,27.32-44.37,0,0,10.43,23.36,16.36,18.93,16.32-12.19,7.29-63.16,7.29-63.16C371.57,465.68,411,476.88,407,525.86Z" transform="translate(-131 -312)"/><path class="cls-15" d="M389.11,488.42c4.54,22.29,6.94,40.75,3.64,54.54-3.51,14.62-12.31,21.43-32.39,21.43h0c-20.22,0-37-11.19-36.9-27.72.15-44.4,32.33-79.56,32.33-79.56-4.54,22.29,7.52,59.29,7.52,59.29C366.8,512.32,379.59,508.21,389.11,488.42Z" transform="translate(-131 -312)"/><text class="cls-16" transform="translate(676.16 321.5)"><tspan class="cls-17">K</tspan><tspan class="cls-18" x="176.4" y="0">A</tspan><tspan x="330.2" y="0">T</tspan></text><text class="cls-19" transform="translate(1123.55 295.55)"><tspan class="cls-20">W</tspan><tspan x="143.16" y="0">a</tspan><tspan class="cls-21" x="234.69" y="0">r</tspan><tspan class="cls-22" x="297.59" y="0">e</tspan></text></svg>